<svg xmlns="http://www.w3.org/2000/svg" viewBox="0 0 200 98.38">
  <defs>
    <style>
      .backgroundColor {
        fill: #ffcf42;
      }

      .strokeColor {
        fill: #231f20;
      }
    </style>
  </defs>
  <rect class="backgroundColor" x="0.02" y="0.03" width="199.97" height="98.31" />
  <path class="strokeColor"
      d="M38.12,46c0-.08,0-.12.13-.12-.17-.12-.16-.4-.37-.52a.94.94,0,0,0-.07-.37l-.2-.16a.51.51,0,0,0,0-.28.68.68,0,0,1-.2-.41c-.12-.08-.16-.24-.28-.41S37,43.68,37,43.6s0-.08-.08-.12-.08-.12-.08-.2l-.12-.2a4.62,4.62,0,0,1-.44-1,.43.43,0,0,1-.12-.2v0c-.12,0-.2-.28-.24-.45s0-.08-.08-.08,0,0,0-.16,0-.08,0-.12a.91.91,0,0,0-.24-.41c-.2-.36-.28-.68-.52-1.05l0,0c0-.16,0-.16,0-.24s-.08-.21-.16-.33-.08-.08,0-.16a9.22,9.22,0,0,1-.68-1.21,5.51,5.51,0,0,1-.59-1.22.39.39,0,0,0-.21-.24,6.08,6.08,0,0,0-.39-.77c-.09-.09-.12-.25-.25-.29s-.16-.2-.16-.32a.92.92,0,0,1-.24-.29.86.86,0,0,0-.36.73.31.31,0,0,0-.13.24s0,0,0,0h0c0,.08,0,.2-.12.28a.47.47,0,0,0-.08.28c-.09.08-.09.16-.13.2,0,.25-.16.37-.12.65,0,0,0,.08-.08.08a5.83,5.83,0,0,0,0,1.25,0,0,0,0,1,0,0,.92.92,0,0,1,0,.81,1.29,1.29,0,0,1-.12.49c0,.12.08.24,0,.44,0,0,0,0,0,0a.21.21,0,0,0-.05.12.46.46,0,0,0,0,.24c0,.08,0,.08,0,.12a2.48,2.48,0,0,1,.08,1.1c0,.24-.09.44,0,.64s0,0,0,.16a.35.35,0,0,1,0,.17,2.84,2.84,0,0,1,0,1v.08s0,.16,0,.32a.86.86,0,0,1,.16.57,1,1,0,0,1,.12.28c0,.16,0,.28.16.44a.89.89,0,0,0,.24.73c0,.16.08.29.08.41a1.57,1.57,0,0,0,0,.48c0,.12.12.08.12.12v.13a1.36,1.36,0,0,1,.08,1c0,.12.16,0,.16.12s0,.12,0,.16c0,.2.24.28.2.49.16.16,0,.4.11.52l.12.25c0,.08,0,.12,0,.2a2.06,2.06,0,0,1,.08.44,4.79,4.79,0,0,1,.2,1s.12,0,.12.12c-.09.29.11.49.11.77,0,0,.08.12.12.16a2.76,2.76,0,0,0,.08.81,7.67,7.67,0,0,0,.15,1.38c-.12.12,0,.32-.12.52,0,0,.12,0,.12.08s-.12,0-.12.08a2.8,2.8,0,0,1-.13,1.38.57.57,0,0,1,0,.44c0,.28,0,.48-.16.6,0,.21,0,.29-.13.45s.08.24.08.48c-.2.2,0,.57-.21.81,0,0,0,0,0,0s0,.4-.16.48,0,.29-.13.37,0,0,0,.08v.44s-.08,0-.08.08a4.11,4.11,0,0,1,0,1.05c-.08,0-.08.12-.12.2s0,.17.12.25-.12,0-.12.12c0,.32,0,.68,0,1,0,.08-.08.08-.08.16,0,.36-.21.52-.33.88-.08,0-.12.08-.2.25-.16,0-.17.2-.29.28l-.28.2a.63.63,0,0,1-.25.12c0,.12-.16.2-.2.28s-.12,0-.12,0c-.16.12-.41.16-.53.28a3.33,3.33,0,0,1-1.37,0,1.67,1.67,0,0,1-.69.07S28.05,66,28,66h-.37s0-.08,0-.08-.32,0-.48-.08l-.24,0c-.16,0-.29,0-.41-.08s-.44,0-.56,0v-.17l-.4-.44a3.57,3.57,0,0,1-1-.29c0-.12,0-.12,0-.2a.67.67,0,0,1-.64-.49c-.17-.12-.49-.05-.53-.21s0-.12.2-.12.09-.24.09-.32c0-.24-.32-.49-.28-.73a.89.89,0,0,1,0-.36,6.36,6.36,0,0,1,0-1s0-.08,0-.08,0,0,0-.08c0-.21.08-.17,0-.21s0-.12,0-.08,0,0,0-.12c0-.44,0-.81,0-1.25,0-.08,0-.08,0-.12a8.94,8.94,0,0,1,0-1.46c0-.12,0-.32,0-.44s0,0,0-.08,0-.08.08-.2a2.23,2.23,0,0,1,0-.53c0-.08,0-.08,0-.08a10.85,10.85,0,0,0,.09-1.53s.16,0,.16-.08,0-.12,0-.16,0-.08,0-.13c-.2-.16.09-.52-.16-.68a.73.73,0,0,0,.17-.61c.12-.36-.16-.85.09-1.09V52.2l0,0a.14.14,0,0,0,0-.08s0,0,0-.12c.12-.12,0-.28.08-.36v-.73a1.28,1.28,0,0,0,0-.45.83.83,0,0,1,.08-.24,1.37,1.37,0,0,1,0-.28,3.29,3.29,0,0,0,0-.65c.2-.2.08-.48.21-.84a3,3,0,0,0,.08-.89,3,3,0,0,0,.13-1s0,0,0-.08a1.4,1.4,0,0,1,.09-.65,4.35,4.35,0,0,1,0-.72s.16,0,.16-.08a1.91,1.91,0,0,0,.05-.53c.16-.32,0-.85.21-1.05s0,0,0-.16,0-.12.12-.16-.08,0,0-.08,0-.08,0-.2,0,0,0-.12,0-.2.13-.32a.05.05,0,0,1,0,0c.08-.28.12-.64.2-.88.05-.08,0,0,0-.16.17-.08.05-.53.21-.65s0,0,0-.08a.86.86,0,0,1,.21-.4,7.9,7.9,0,0,1,.08-.89s0,0,0-.08c0-.37.17-.57.21-.93,0-.08,0-.2.16-.24a3.74,3.74,0,0,1,.05-.53.54.54,0,0,0,.08-.36.29.29,0,0,0,.12-.24l.09-.36v-.08c.08-.12.08-.29.16-.37s.05-.36.13-.44a.55.55,0,0,1,.12-.52c0-.29,0-.49.17-.61s0,0,0-.12.08-.12.12-.16c-.12-.28.12-.36,0-.57a.66.66,0,0,0,.17-.48c.08,0,0-.16.16-.16a.81.81,0,0,1,.25-.65c.08-.44.33-.76.41-1.2.12-.08.08-.33.21-.37,0-.2.2-.24.2-.44.12,0,.16-.16.24-.24s.25,0,.29-.16h.08a2.58,2.58,0,0,1,.61-.16s0-.08.16,0v-.08c.48.09.69-.15,1-.31a.45.45,0,0,0,.33-.16h.28c.2,0,.28-.2.4-.24h.37c.12,0,.2.08.24.2s.32,0,.36.17c.25,0,.41.12.65.12.16.21.6.09.76.37a.33.33,0,0,1,.37.13c.08,0,.16,0,.24,0s.12.08.16.12a0,0,0,0,1,0,0s.2,0,.24,0l.16.21s.21,0,.21.12c.16,0,.2.16.32.24s.16,0,.16.12c.2.09.24.37.52.41,0,.16.2.2.2.45.12.08.16.12.28.12a.21.21,0,0,1,.08.16c.08,0,.16.25.28.25s.25.2.24.36c.17,0,.21.2.41.21q0,.06.12.12a.89.89,0,0,0,.2.52.37.37,0,0,1,.12.13.51.51,0,0,1,0,.24c.16,0,.2.2.24.36a.58.58,0,0,1,.28.21l.12.24s.08.08.12.12v0a.57.57,0,0,0,.12.21l.16.24s0,0,0,.12,0,.12.12.16.08.33.28.37a1,1,0,0,0,.4.49c0,.32.16.4.16.64,0,0,0,.12.08.12a10.55,10.55,0,0,0,.44,1,.87.87,0,0,0,.27.69s0,0,0,.08v.12a2.49,2.49,0,0,1,.32.48s.08,0,.08.13a.39.39,0,0,1,.08.36c.08.08.08.16.12.24s0,.29.08.37,0,0,.12.08-.08.12,0,.16a1,1,0,0,1,.16.49c.12.12.08.36.16.44s0,.12,0,.12a.36.36,0,0,1,.16.33c.12.12.2.16.24.36,0,0,0,0,.08,0,0,.41.32.57.36,1a1.09,1.09,0,0,1,.23.73c.08.08.16.12.16.25s.12.24.24.32c-.12.2.16.24.08.49.16,0,.16.16.24.24a2.4,2.4,0,0,1,.16.73c.08,0,.08.2.2.2s0,.16,0,.24c.2.17.24.45.44.61a.86.86,0,0,0,0,.29,0,0,0,0,1,0,0c.08,0,.08.12.08.2s.12.12.08.36l.12.08c0,.17.16.29.24.49s.12.49.36.57c.08.24.12.44.32.36a1.18,1.18,0,0,0,.08-.4s.12,0,.16-.08.09-.32,0-.4c.12-.12,0-.37.08-.49v-.08a.9.9,0,0,0,0-.28.09.09,0,0,0,.08-.08c0-.28,0-.57,0-.89a1,1,0,0,1,0-.36c0-.12,0-.08,0-.17A8.89,8.89,0,0,0,47,45.36c0-.12,0-.24,0-.28s0,0,0,0a.5.5,0,0,0,0-.36c.2-.16,0-.61.2-.85a1.25,1.25,0,0,1,.05-.36c0-.33,0-.73,0-1.13,0-.05,0-.05.09-.09a1.31,1.31,0,0,1,0-.4,1.73,1.73,0,0,1,0-.2,1.74,1.74,0,0,1,.05-.69s-.05,0,0-.08,0-.4,0-.6a.3.3,0,0,0,.08-.16,1.93,1.93,0,0,1,.05-.73s-.08,0,0-.08a.24.24,0,0,0,0-.16c.08-.25,0-.61.16-.77s0,0-.08-.08a2.51,2.51,0,0,0,.09-1.13l.13-.2s-.09,0,0-.08,0,0,0,0a12,12,0,0,1,0-1.22s0,0,0,0c.17-.4,0-.8.17-1.17-.07-.4.13-.68.09-1,.12-.28.05-.76.17-1a2.14,2.14,0,0,1,.09-.85c0-.08,0,0,0-.08a4.34,4.34,0,0,1,.2-1.05c.09-.32,0-.61.09-.85,0,0,.08-.08.08-.12a3.68,3.68,0,0,0,0-.57s0,0,.08,0c0-.24,0-.52,0-.68a.69.69,0,0,0,.13-.36,2.33,2.33,0,0,1,0-.49,2.66,2.66,0,0,0,.12-.6s0-.08,0-.08a9,9,0,0,0,0-1c.12-.12.13-.33.13-.61a.48.48,0,0,1-.12-.32s-.08,0-.08,0c-.12-.25-.4-.33-.4-.61s.16-.28.32-.44c0-.09-.08-.17,0-.25s0-.24.17-.36,0-.24,0-.36.08-.16.08-.2a.36.36,0,0,0,0-.21.52.52,0,0,1,.13-.2s0-.08.08-.12a.52.52,0,0,1-.08-.44,2.85,2.85,0,0,0,.49-.32,8.8,8.8,0,0,0,.93-.12s0,0,.08,0,.2-.08.32,0c.08-.08.29-.08.49-.24,0,0,.08,0,.12-.12a.31.31,0,0,0,.16-.16.63.63,0,0,0,.33-.08c.08.05.28.09.4.17a6,6,0,0,1,.85,0s0,0,.08-.08a1,1,0,0,1,.53.13c.24,0,.6,0,.8.13,0,0,0,0,.08.12a.31.31,0,0,1,.17,0s.08,0,.16,0l.16.08a1.24,1.24,0,0,1,.32.08v0c.28.09.32.29.48.33s.13.12.21.12c.08.29.2.41.27.65s.17.24.08.49c0,0,.08,0,.12.08a3,3,0,0,0,0,.6c0,.13-.12.12-.12.21s.16.16.2.28,0,.12,0,.16.08.16.08.24-.13.25-.13.41-.12,0-.2.08c0,.36-.29.44-.53.64,0,.16,0,.24,0,.44l-.25.57a2.52,2.52,0,0,1-.29.48,3,3,0,0,1-.08.65s-.08,0-.08,0,0,.2-.13.28,0,.2,0,.28-.08.24-.08.36v.21a.83.83,0,0,1-.08.24c0,.12,0,.16-.09.24a.57.57,0,0,1-.16.44c0,.16,0,.37-.09.45a1.73,1.73,0,0,0,0,.2c-.12.2,0,.44-.12.68,0,.08,0,.12,0,.17s0,.12,0,.2-.05.24-.05.36,0,.36-.12.48.12,0,.08.21-.08.08-.08.12c-.09.2,0,.6-.09.93.08.12,0,.4.08.44,0,.24,0,.49-.05.69a.57.57,0,0,0-.08.24l.08.12c0,.16-.12.36-.08.57s0,.08,0,.12a.72.72,0,0,1,0,.4c0,.24,0,.49-.08.61a2.54,2.54,0,0,1,0,.64.14.14,0,0,0,0,.08c-.08.08,0,.25,0,.41a.87.87,0,0,0-.08.48s.08.08.08.12-.09.33-.09.45,0,0,0,0a2.28,2.28,0,0,0,0,.52c0,.2.16.29.16.37s-.08.08-.08.12a.5.5,0,0,0,.15.4,3.39,3.39,0,0,1-.08,1.29s.08,0,0,0c-.13.29,0,.65-.05.93a.94.94,0,0,0,0,.21c-.16.08,0,.44-.13.52.16.4,0,.93,0,1.37,0,.08.07.25.07.37l-.08.12h0c0,.2,0,.28-.12.36l.16.2a4.16,4.16,0,0,0,0,.61.3.3,0,0,0-.08.16c.16.36-.16.69-.13,1a1.21,1.21,0,0,1,.16.28c-.12.28,0,.69-.16.93,0,.12,0,.12,0,.16s0,0,0,.12.12.09,0,.21c-.16.32.24.76,0,1.09a2.62,2.62,0,0,0,0,.56c0,.16-.08.36-.08.49s0,.12,0,.2,0,.12-.08.16a.68.68,0,0,1,.07.52,1.22,1.22,0,0,1,0,.65A4.06,4.06,0,0,1,53.88,54c0,.12,0,.32,0,.36A.85.85,0,0,1,54,55s-.09.12-.09.12-.08.2-.08.24.08.12.08.25-.24.48-.21.72.24.41.08.53c0,.32-.08.6-.08.85,0,.08-.09.08-.09.12s0,.12,0,.16c-.12.28,0,.72-.12,1a2.7,2.7,0,0,1-.05.52c0,.16,0,.32-.12.49s0,.32-.13.4.08,0,.08.12-.12,0-.12.08a1.36,1.36,0,0,1-.08.85,3.7,3.7,0,0,1-.17,1s0,0-.16,0c.08.12.2.28.15.36s-.08.08-.16.12-.12.24-.24.24a.74.74,0,0,1-.29.08c0,.08-.12.08-.16.2a.31.31,0,0,0-.28.12c-.16,0-.45.12-.61.08a1.63,1.63,0,0,1-.69.07,1.26,1.26,0,0,0-.76-.28c-.12-.21-.49-.17-.61-.29h-.4c-.16-.08-.36-.29-.49-.33s-.24,0-.36,0a.75.75,0,0,1-.52-.09s0-.24,0-.28a1.18,1.18,0,0,1-.45-.2,1,1,0,0,1,0-.49,6.44,6.44,0,0,1-.69-.45h-.44c0-.2,0-.28.12-.32a1.79,1.79,0,0,1,.17-.45,4,4,0,0,0-.28-.6c-.08-.12-.12-.29-.2-.33a.24.24,0,0,1,0-.16l-.08-.12A13.44,13.44,0,0,0,44.88,58a.24.24,0,0,0-.12-.24,3.91,3.91,0,0,0-.16-.49c-.28-.28-.32-.81-.6-1.17a7.83,7.83,0,0,0-.4-.89,0,0,0,0,1,0,0c-.08,0-.08-.21-.12-.25l-.08-.24a.14.14,0,0,1-.08,0c-.08-.16-.08-.28-.16-.36a.12.12,0,0,0-.08-.13h0a.54.54,0,0,1,0-.28h-.09l-.16-.28c0-.09,0-.17-.16-.25s0,0,0-.08a.28.28,0,0,1,0-.2c-.05,0-.09,0-.09,0a.21.21,0,0,1,0-.16s-.13-.17-.12-.21a.31.31,0,0,1-.16-.24s-.05,0-.09-.12c-.11-.45-.44-.65-.59-1.06a11,11,0,0,0-.69-1L40.05,49s0,0,0,0-.16-.08-.08-.12c-.16-.12-.15-.32-.28-.36s-.08-.13-.16-.25,0-.12,0-.12a1.59,1.59,0,0,1-.32-.65,16.8,16.8,0,0,1-.87-1.5S38.24,46,38.12,46Zm140.19,31a1.54,1.54,0,0,1-.45.2s-.08,0-.08,0,0,.08-.08.08h-.16s-.16.08-.2,0c-.17.12-.41,0-.61.08a2,2,0,0,1-.69,0s0,0-.12,0h-.08c-.08,0-.2,0-.28,0s-.25,0-.33,0-.2,0-.32,0a1.59,1.59,0,0,0-.28,0h-.29c-.16,0-.28,0-.36,0s-.12,0-.16,0h-.25l-.88-.09c-.13,0-.17,0-.25-.08-.24,0-.48.08-.76,0a1.51,1.51,0,0,1-.61,0s-.16,0-.16,0c-.16-.12-.33,0-.61,0,0,0,0,0-.08-.08s0,.08,0,0c-.57.08-1.05-.09-1.58,0,0,0-.08,0-.2,0s-.16,0-.16.08a5,5,0,0,0-1.33-.09c-.17,0-.33.12-.53.12s-.32,0-.49,0a9.16,9.16,0,0,0-2.34,0,4.14,4.14,0,0,0-.81.16c-.61,0-1.25,0-1.78,0h-.36l-.17.16c-.08,0-.36.08-.44.08-.53,0-1.17-.09-1.86-.09h-1c-.24,0-.61,0-.89,0-.12,0-.2.12-.32.12l-.65.07a1.46,1.46,0,0,0-.57.12c-.36,0-.69,0-1,0a9.88,9.88,0,0,0-1.09,0c-.08,0-.2.08-.29.08-.24,0-.6,0-1,0-1.37,0-2.58-.22-3.88-.27-.56,0-1.05,0-1.53,0a6.88,6.88,0,0,1-.81-.08,2.69,2.69,0,0,1-.77-.09,8.79,8.79,0,0,1-1.78,0s-.12,0-.16,0h-.2c-.08,0-.2-.09-.28-.09a7.84,7.84,0,0,0-1,0,7.3,7.3,0,0,0-.93,0c-.33,0-.61,0-.89,0h-.77a35.5,35.5,0,0,0-4.25,0,3.87,3.87,0,0,1-.64.11c-.65,0-1.38,0-2,0-.32,0-.64,0-1,0s-.68,0-1,0a6.43,6.43,0,0,1-1.53-.09h-.41l-.32,0c-.08,0-.12,0-.2,0a4.42,4.42,0,0,1-.69,0,16.53,16.53,0,0,0-3.23-.1,5,5,0,0,1-1.26.19c-.2,0-.48-.08-.65-.09a7.53,7.53,0,0,0-1,.08c-1,.07-2,.15-2.95.18s-1.82,0-2.79,0c-1.37,0-2.75-.14-4.08-.26-.49,0-1,0-1.5,0-.24,0-.48-.09-.81-.09a5.94,5.94,0,0,0-.76-.05c-.57-.08-1.22,0-1.78,0,0,0-.12-.08-.16-.08a13.28,13.28,0,0,0-1.78-.05c-.29,0-.49,0-.77,0s-.53,0-.73,0-.44,0-.69,0c-1.37,0-3,0-4.24,0-.28,0-.45.08-.73.08-.57,0-1.21,0-1.86,0-.48,0-1,0-1.41,0a6.34,6.34,0,0,1-1.5,0c-.08,0-.12,0-.2,0a2.8,2.8,0,0,1-.65-.08c-.12,0,0,.08-.16.08s0,0-.08,0a2.44,2.44,0,0,0-.37-.08c-.08,0-.12,0-.24.07a3.33,3.33,0,0,1-.52-.08A19.3,19.3,0,0,0,86.4,77c-.12,0-.28.08-.52.12s-.33,0-.53,0a8.19,8.19,0,0,1-1.41,0c-.33,0-.65.07-1,.07l-1.91.11c-.16,0-.32,0-.56,0h-.37a1.22,1.22,0,0,1-.6.12s-.21,0-.2,0,0-.08,0-.08a.17.17,0,0,1-.13.08s0-.08-.12-.08-.2.08-.28-.05c-.16.21-.57.16-.85.16a5.47,5.47,0,0,0-.81,0,5.78,5.78,0,0,0-.93,0,.06.06,0,0,1-.08,0s0,0-.08,0a6.75,6.75,0,0,0-.89.11,6.11,6.11,0,0,1-.85.08,25.37,25.37,0,0,1-2.59.19c-.57,0-1.21,0-1.78-.06s-1.05-.16-1.57-.21-.65,0-1,0a4.83,4.83,0,0,1-.49-.17H65.09c0-.08-.12,0-.16-.08a.62.62,0,0,1-.24-.12H63.52c-.21,0-.41.12-.61.12s-.28,0-.44,0a9.56,9.56,0,0,0-2.39,0l-.85.11a7.51,7.51,0,0,1-1.42,0,15,15,0,0,1-1.94.15c-.16,0-.32-.08-.48-.08a.64.64,0,0,1-.37-.08,1.68,1.68,0,0,0-.72-.09c-.12,0-.25.16-.41.16,0,0,0-.08,0-.08v.08c-.08,0-.16-.08-.36-.08s-.12.08-.2.08c-.25,0-.41-.09-.65-.09a17.88,17.88,0,0,0-3-.06c-.2,0-.41,0-.57,0a1.23,1.23,0,0,1-.52.12c-.49,0-1,0-1.46,0a6.44,6.44,0,0,0-1,0l-2,.15a3.08,3.08,0,0,0-.61,0h-.24a2.25,2.25,0,0,1-.61.08.81.81,0,0,0-.2,0v0c-.08,0-.12,0-.16,0a.14.14,0,0,0-.08,0c-.08,0-.29,0-.33,0-.2.2-.52.11-.77.07s-.64,0-.84,0a3.84,3.84,0,0,0-.73,0,.39.39,0,0,0-.25.12h-.6a1.16,1.16,0,0,0-.49-.09c-.12,0-.12.08-.16.12-.28,0-.69.08-.89,0,0,.12,0,0,0,0S37,78,37,78s-.12,0-.33.12h-.28l-.28.2H36c0,.08,0,.12-.09.08s-.36,0-.52,0-.28,0-.41,0h-.52a.37.37,0,0,1-.2-.12c-.12,0-.33,0-.49-.08s0,0-.12,0a5,5,0,0,0-.77-.13.94.94,0,0,1-.68-.16l-1-.09s-.08-.08-.2-.08a1,1,0,0,1-.37,0v0a4.18,4.18,0,0,1-.68-.16c-.09,0-.13,0-.21,0s-.24,0-.32-.09-.16-.12-.24,0A3.22,3.22,0,0,0,28.3,77a3,3,0,0,0-.52-.24c-.12-.25-.57-.21-.73-.45a1.52,1.52,0,0,1-.36-.17L26.33,76l-.12-.2-.16-.13a1.88,1.88,0,0,0-.29-.16c0-.08-.08-.08-.08-.24-.28-.12-.4-.33-.64-.57a5.85,5.85,0,0,1,0-.93c0-.08,0-.16,0-.2s.12-.08.24-.08.2-.12.37-.12a1.57,1.57,0,0,0,.16-.36c.16,0,.32.12.49,0s.16.16.32.16.16-.08.28-.07c.28-.08.61.08.69-.08a.59.59,0,0,1,.08-.16c0-.12-.24-.17-.24-.33s.12,0,.12,0a.43.43,0,0,1,.24,0,.25.25,0,0,1,.21.12c.16,0,.32,0,.4,0,.44.09,1,0,1.41,0a1.46,1.46,0,0,1,.29.08s.12,0,.16.13c.24,0,.52.12.73,0a1.09,1.09,0,0,0,.36,0,5.53,5.53,0,0,1,1.17-.11,1.51,1.51,0,0,1,.45-.08c.16,0,.32,0,.52,0a2,2,0,0,1,.29,0,2.11,2.11,0,0,0,.52,0s.12-.08.25-.08.44,0,.68-.08.21-.08.29-.08.44,0,.6,0a7.64,7.64,0,0,1,.93-.12c.17,0,.33,0,.41,0s.28,0,.44-.07a2.2,2.2,0,0,0,.29,0c.36-.08.69,0,1-.08,0,0,.08-.08.16-.08s.37,0,.57,0a.7.7,0,0,0,.24,0c.08,0,.12,0,.16,0s.08,0,.12,0a2.6,2.6,0,0,1,.57,0,.87.87,0,0,0,.24,0h0s0-.08.09-.08c.24,0,.48,0,.76,0l.17-.08a4.84,4.84,0,0,0,.76,0s0-.08,0-.08a7.51,7.51,0,0,0,1-.07,34.75,34.75,0,0,1,4.29-.38,13.51,13.51,0,0,1,1.77.1l1.66.17a11.34,11.34,0,0,1,1.17,0h.33a1.62,1.62,0,0,0,.44,0c.08,0,.12,0,.24.12a1.51,1.51,0,0,0,.73-.07c1.3-.12,2.87-.35,4.33-.34.57,0,1.17,0,1.78.05s1.05.17,1.61.21.81,0,1.18,0a1.13,1.13,0,0,0,.32,0,2.62,2.62,0,0,1,.49,0,1.63,1.63,0,0,1,.28.08h.28a1.94,1.94,0,0,1,.49,0c.24.05.36.17.52.17.32,0,.77,0,1.09,0s.73,0,1.13,0a15.27,15.27,0,0,0,2.79,0,.82.82,0,0,1,.49-.12c.49,0,.93,0,1.42,0a3.47,3.47,0,0,1,.72,0,.46.46,0,0,1,.25-.08c.28,0,.6,0,.85,0a15.74,15.74,0,0,1,1.78-.07,6.79,6.79,0,0,1,.89,0c.6,0,1.17-.12,1.82-.11s1.21,0,1.9,0L82.72,71a26,26,0,0,1,2.59-.23,16.07,16.07,0,0,1,1.78.09,10.72,10.72,0,0,0,1.58.22c.4,0,.84,0,1.25,0a2.74,2.74,0,0,0,.28,0l.49,0s.16.08.2.08a1.7,1.7,0,0,0,.77,0A8.48,8.48,0,0,0,93,71c.49,0,1-.15,1.46-.19a46.12,46.12,0,0,1,6.23.2,11.91,11.91,0,0,0,2.06.06,18.38,18.38,0,0,0,2.1,0,4.32,4.32,0,0,1,1,.09,9.45,9.45,0,0,1,1,.08c.69,0,1.41,0,2.1,0a33.67,33.67,0,0,0,6,.08,3.5,3.5,0,0,0,.64-.08c1.09,0,2.23,0,3.36,0,.52-.08,1.09-.07,1.62-.11.24,0,.52,0,.81,0a3.56,3.56,0,0,0,1-.07c.52,0,1,0,1.49,0a4.47,4.47,0,0,0,.73,0c.36,0,.77-.07.93,0a21.15,21.15,0,0,1,2.87,0,7.84,7.84,0,0,1,1.46,0c.44,0,.89.08,1.33.09S132,71,132.46,71s.93,0,1.37,0c1.29,0,2.63.1,4,.19.85.09,1.7,0,2.63.06.2,0,.44,0,.65,0a3.42,3.42,0,0,1,.64,0,.19.19,0,0,1,.16.09c.49,0,1,0,1.46,0,1.41,0,2.91.06,4.33.06,1.9,0,3.84,0,5.74,0,.08,0,0-.12.16-.08,1.21,0,2.47,0,3.56-.06a2.55,2.55,0,0,1,.36-.08c.12,0,.32.09.53.09a3.19,3.19,0,0,0,.6-.12c1-.07,2.11-.27,3.28-.3.61,0,1.5,0,2.18,0s1.34.17,1.94.22c.41,0,.81,0,1.22,0a.72.72,0,0,0,.36.05H168c.08,0,.12.08.24.08s0,0,0-.08a.57.57,0,0,1,.52,0,2,2,0,0,1,.49,0h.4s.08,0,.12,0,.17,0,.16.09c.09-.09.25-.16.33-.12a.36.36,0,0,1,.28.12c.08,0,.16-.08.2,0h.25a.55.55,0,0,0,.44,0,1.71,1.71,0,0,0,.48.17h.21s.24,0,.24-.08c.12.08.24,0,.44,0h.33a3.3,3.3,0,0,0,.61-.08,1.1,1.1,0,0,0,.48-.08c.08.08,0,.16.08.24.08-.08.16,0,.24,0s.16,0,.29-.08a1.44,1.44,0,0,0,.72.08c0-.08.12,0,.17,0v0a.06.06,0,0,0,.08,0v-.08c.08,0,.12,0,.16,0a.67.67,0,0,1,.48.13A.69.69,0,0,1,177,72a.37.37,0,0,1,.24.17c0,.08.16,0,.16,0s0,.08,0,.16c.24-.08.32.08.48,0,0,.09.08,0,.08,0a1,1,0,0,0,.37.08c0,.12.12,0,.16.12s0,.32,0,.49.24,0,.28.16-.12.12-.29.12c.16.16,0,.16-.08.2s.24,0,.37,0,0,.16.08.16.28,0,.32.09c-.16.16-.45,0-.53.16a.78.78,0,0,0,0,.28c.08,0,.4,0,.32.2.16.12,0,.08-.08.12s-.12,0-.16.08,0,.08.08.12.08.13.12.25-.21.12-.25.24c0-.08-.2,0-.2,0h-.24c0,.16,0,.2.12.24a.6.6,0,0,1,.28,0c-.12,0,.08,0,0,0,.12,0,0,.12.08.2s.2,0,.2,0a1.49,1.49,0,0,0,.16.37c-.08,0-.16.16-.28.16s-.08.12-.12.2c0-.08-.21,0-.25.08l-.32.28s0,.12.12.12v0ZM65.17,58.61a4.32,4.32,0,0,0,.46-1.17c.08-.12.08-.24.16-.32s0-.12,0-.17,0-.24.16-.28c0-.08.05-.08.05-.28a0,0,0,0,0,0,0,.79.79,0,0,1,.08-.4c.08-.12.08-.2.16-.28,0-.29.17-.41.17-.69,0,0,0,0,.08-.08s0-.24.13-.36-.09,0,0-.08,0-.37.12-.41a2.46,2.46,0,0,1,.12-.44c0-.08,0-.12.09-.2v-.28a1.88,1.88,0,0,0,.16-.49.94.94,0,0,0,.09-.36,1.76,1.76,0,0,0,.12-.45s0-.08.08-.16,0-.24,0-.52c.12-.08.12-.44.16-.61s0-.12,0-.16c0-.2,0-.32.09-.4,0-.32.08-.44.08-.77.16-.16.09-.36.09-.64l-.08-.12c0-.21-.12-.29,0-.37s-.08-.12-.12-.16,0-.24,0-.4-.12-.05-.2-.09,0-.08-.08-.12a.68.68,0,0,1,.08-.2c.12-.08.2-.08.21-.28-.09,0-.09.12-.25,0s0-.12,0-.24-.2-.17-.24-.29,0-.12.13-.16a2.23,2.23,0,0,1-.2-.32c0-.13-.12-.13-.12-.21s.08-.32.12-.4a1.92,1.92,0,0,1,0-.48c0-.13.13-.17.21-.33s-.12-.2-.2-.28a2.19,2.19,0,0,1,.45-.81h.12s.12-.08.12-.21a2.15,2.15,0,0,1,.73-.31s0,0,0,0c.2-.2.53-.2.77-.4,0-.08.12-.12.21-.24s0-.17.08-.21a2.42,2.42,0,0,0,.6,0s0-.08,0-.08a.94.94,0,0,1,.36.24c.12,0,.12-.08.16-.12s.08,0,.16,0h.65c.08,0,0,0,.08,0s.2,0,.2,0a.78.78,0,0,1,.41,0c.12,0,0,0,.12,0l0,0s.16,0,.2,0,0,0,.08,0,.12.09.16.09.29,0,.33.08a.08.08,0,0,0,.08-.08c0,.08.16.08.2.16.16-.08.28.12.36,0a.42.42,0,0,0,.41.09q.06.12.12.12h.16c.12.12.32,0,.36.2.16,0,.2-.08.28-.07a.43.43,0,0,0,.12.2c.25.12.41.16.49.36.24,0,.32.17.4.33s.2,0,.28.08.24.37.36.49,0,.24.16.28c0,.21,0,.37,0,.57,0,0,0,0,0,.08,0,.2,0,.36,0,.44a.43.43,0,0,0,0,.21,1.27,1.27,0,0,1-.12.36c-.08.24.12.24.08.57a1.48,1.48,0,0,1-.37.28s0,.08,0,.08c-.16,0-.16.2-.36.24,0,.4-.41.44-.41.84l-.13.08c0,.2-.12.28-.12.53a.14.14,0,0,0-.08,0c0,.12-.16.2-.21.32s0,0-.08.08-.12.24-.16.48a.67.67,0,0,1-.25.44v.17c-.16.12-.12.48-.33.6,0,.16-.08.2,0,.28a1.36,1.36,0,0,0-.25.89c-.08,0-.12.16-.12.32-.08,0-.08.08-.12.12s-.08.08,0,.16c-.16.12-.12.29-.17.45a4.37,4.37,0,0,0-.32.6c-.09.08,0,.08,0,.12s-.09.12-.13.16c0,.41-.24.65-.29,1a.44.44,0,0,0-.16.36,1,1,0,0,0-.08.37c-.09.16-.09.24-.17.36s-.16.36-.32.44c0,.32-.21.44-.25.69,0,0,0,.08-.16.08v.28s0,.08-.08.12l-.08.08a1.27,1.27,0,0,0-.12.36s0,.12-.16.12c0,.24-.21.28-.17.57a1.83,1.83,0,0,0-.21.56c0,.08-.12,0-.12.08s0,.12,0,.24-.08.12-.12.12a1.5,1.5,0,0,1-.17.49c-.08.24-.24.56-.33.92a1.53,1.53,0,0,0-.2.37v.12a1.84,1.84,0,0,0-.41.84c-.28.12-.29.49-.45.65,0,.16,0,.16,0,.24-.24.12-.29.4-.37.64,0,0,0,0-.08,0s0,.08,0,.2c-.2.08-.21.33-.29.45a.3.3,0,0,1-.16.08s0,.12,0,.16-.08,0-.12,0-.08,0-.12,0-.13.24-.21.24c-.08.16-.16.2-.24.36a2.09,2.09,0,0,0-.73.6c-.13,0-.25.2-.37.28s-.08,0-.16,0a.14.14,0,0,0-.08,0,.59.59,0,0,0-.49.28c-.12,0-.32.08-.45.08a1.41,1.41,0,0,0-.24,0,.92.92,0,0,1-.68-.17c-.25.12-.33-.08-.49,0-.24-.17-.48-.09-.77-.13-.12,0-.16-.12-.28-.08a1.34,1.34,0,0,0-.85-.33h-.08l-.64-.09a1.42,1.42,0,0,1-.45-.2c-.08,0-.24,0-.28,0s0-.08,0-.08a16.79,16.79,0,0,1-.93-.25,5.3,5.3,0,0,0-.76-.53s0,0,0-.08-.2-.17-.33-.21a.54.54,0,0,1-.24-.28h-.12a.34.34,0,0,0-.16-.33v-.08s-.08-.08-.12-.16,0-.36-.2-.49c0-.24-.2-.28-.2-.4s-.07-.28-.15-.33c0-.24-.2-.36-.2-.56a2,2,0,0,1-.24-.73c-.08-.12,0-.36-.12-.49s-.08-.2,0-.24c-.16-.08-.08-.24-.2-.32,0-.24-.08-.45-.07-.65,0,0,0-.08,0-.16a.74.74,0,0,0-.08-.28,1.67,1.67,0,0,1,0-.45c0-.12-.08-.32-.08-.48s.08-.08,0-.16a13.57,13.57,0,0,1-.07-1.66v-.2s0-.16,0-.21c0-.24,0-.56,0-.84,0-.49,0-1,0-1.42v-.24s0,0,0-.12v-.32c0-.21,0-.41,0-.61a1.79,1.79,0,0,1,0-.48v0c0-.21,0-.45,0-.65a1.73,1.73,0,0,1,0-.2v-.41s0,0,0,0v-.12a.57.57,0,0,0,.09-.24c.08-.16,0-.32.08-.56v0s0-.17,0-.21c0-.2.05-.32.05-.52s0-.57.12-.73c0-.52.29-.84.25-1.37a2.5,2.5,0,0,0,.13-.64,1,1,0,0,0,.08-.37v-.12s0-.08.09-.08c0-.2,0-.4.16-.48a2.58,2.58,0,0,1,.13-.65A.66.66,0,0,1,58,44c0-.36.17-.61.17-1,0-.08.12-.08.12-.08a4.12,4.12,0,0,1,.21-1c0-.16,0-.24.12-.28,0-.2.08-.32.08-.48a2.71,2.71,0,0,0,.25-.89c.25-.28.25-.77.37-1.05.09-.12.17-.12.21-.24s.16,0,.16,0,.28,0,.36-.16a.4.4,0,0,0,.29.08s.08.05.16.05.24-.08.32,0,.12-.12.12-.28c.25.12.37.32.65.28.08,0,0-.16.12-.28s0,.16.12.2a.09.09,0,0,1,.08.08.54.54,0,0,1,.28.37,3.36,3.36,0,0,1,.57.45s0,.08,0,.12l.08,0s0,.08,0,.08,0,0,.08,0c.08.16.2.21.28.29a1.74,1.74,0,0,1,.16.28c0,.08,0,.08,0,.2a.23.23,0,0,1,.16.25c0,.12-.16.2-.21.28a.81.81,0,0,0,0,.2c0,.16,0,.28,0,.44-.2.29,0,.81-.05,1.26a0,0,0,0,0,0,0c0,.08,0,.12,0,.16s0,.16-.08.32,0,.2,0,.4c0,0,0,.09,0,.17s0,.08,0,.12c0,.24-.08.4,0,.48a.25.25,0,0,0,0,.29c-.12.32,0,.88-.17,1.13a4.59,4.59,0,0,1,0,.76v.2s0,.13,0,.17a.81.81,0,0,1,0,.2c0,.08,0,.24,0,.4s0,.12,0,.2c0,.25-.25.33-.17.61-.16.2-.08.36-.12.6s-.09.2-.09.41a.84.84,0,0,1-.08.52c0,.08.08.12.08.16s0,.12-.08.25.08.12,0,.2a3.94,3.94,0,0,0,0,.81c0,.08,0,.16,0,.28-.09.44.07.89,0,1.33-.08,0-.08,0-.12.12a.21.21,0,0,0,.12.16,1.46,1.46,0,0,0-.09.93.49.49,0,0,1,.08.33c-.08,0-.08,0-.12.12,0,.28-.09.6.11.76a.84.84,0,0,0-.12.45c0,.08.12,0,.12.12s-.12.16-.12.2,0,.36.12.49c0,.52,0,1.21,0,1.73,0,0,0,.12,0,.16s0,.09,0,.17,0,0,0,.08a4.72,4.72,0,0,0,.08.81s0,0,0,.08,0,.2,0,.4c.2.2.19.65.35.93,0,0,0,.16,0,.2s.08.05.12.21v0c.16,0,.08.2.33.16a6.29,6.29,0,0,0,.45-.84s0-.09,0-.08c.08-.45.37-.73.45-1.17,0,0,0,0,0,0,0-.29.2-.37.21-.65.12,0,.12-.16.16-.24s.12-.2.08-.4ZM81.31,26.68c0-.12.12-.16.12-.36s-.08-.09-.08-.17,0,0,0-.08a.88.88,0,0,1,.13-.72c-.08-.17-.16-.45.08-.57-.08-.24-.15-.52.05-.68,0-.25,0-.41,0-.49s-.08,0,0-.08,0-.08,0-.16a1.73,1.73,0,0,1,0-.2c.17-.2,0-.93.21-1.09a.31.31,0,0,1,0-.2c0-.05,0,0,0-.09s0-.12,0-.24.08-.36.16-.44c0-.24,0-.36.13-.44a1.35,1.35,0,0,1,.12-.61,1.5,1.5,0,0,1,0-.4s.09,0,.09-.08a1.1,1.1,0,0,1,.12-.33l0,0s0-.08.08-.08a4,4,0,0,1,.21-.88.57.57,0,0,1,.24.08,3.29,3.29,0,0,1,.41-.08.44.44,0,0,1,.36-.08c.12-.28.4,0,.65-.16a.53.53,0,0,0,.56.17c.24.16.49.49.69.65.12,0,.2.12.28.12,0,.41.36.41.4.73l.2.45a11,11,0,0,0,0,1.29c.08.41,0,.77.07,1.21,0,0,.16.09.16.13a2.3,2.3,0,0,1,0,.48,1.41,1.41,0,0,1,.12.45,1.81,1.81,0,0,0,.36.85s0,0,.08.08l.12.36s0,0,0,.08a1.7,1.7,0,0,1,.12.33c.16.24.23.73.39,1a1.24,1.24,0,0,1-.2,1,3.85,3.85,0,0,0,.19.93s0,.12-.08.12c.12.12.08.36.08.48s0,.45,0,.61,0,.12-.12.16.08.12,0,.12,0,0,0,0c.24.25,0,.45,0,.69.08.08.28.08.32.16s0-.08.12,0c.08-.08.08,0,.08,0,.57,0,1,.13,1.54.09.08.09.24.05.32.05s.16,0,.24,0,.25,0,.37,0a1.27,1.27,0,0,0,.36.12c.28.17.81-.15,1,.13.28,0,.36.12.52.13s.13,0,.13,0,.12,0,.16,0a.31.31,0,0,0,.2.08c.08,0,.2,0,.2,0a1,1,0,0,1,.36,0,.28.28,0,0,1,.25.13h.2a1.88,1.88,0,0,0,.69.12.09.09,0,0,1,.08.08,1.13,1.13,0,0,1,.52.09c.08,0,.2,0,.28,0a6.58,6.58,0,0,0,1.82.05c.12,0,.12.12.16.16s.16.09.25.05,0,0,.08,0h.16a4.41,4.41,0,0,0,.73.08s.12,0,.08,0c.12,0,0,0,.16,0s0-.08.08-.08.24,0,.4,0a2,2,0,0,1,.45.28.18.18,0,0,0,0,.13c.08,0,.12.28.28.16,0,.16,0,.16,0,.16s.12,0,.12,0,0,.08,0,.16a2.52,2.52,0,0,1,.89.25,2.45,2.45,0,0,1,.24.16,2.06,2.06,0,0,0-.05.45c.08,0,.17,0,.21.16s-.13.08-.17.16-.08.12-.2.16c0,.08.28,0,.32.09s0,.12.12.16.2.08.24.08-.32.12-.36.08a.24.24,0,0,1-.16,0c0,.08,0,.12,0,.28.12.12.36.08.44.21-.08,0-.08,0-.08,0a.92.92,0,0,0-.33.11s0,0,0,0a1,1,0,0,1,.2.33c0,.12-.2.12-.28.24,0-.08-.28.12-.36,0-.09.08,0,.12,0,.16a1,1,0,0,1,.45.16.57.57,0,0,0,0,.25.24.24,0,0,0,.16,0c0,.16,0,.24.12.32a.32.32,0,0,1-.29.16l-.16.2,0,0a4.14,4.14,0,0,1-.61.28.2.2,0,0,0,.16.2v0c-.12,0-.16.08-.24.12h-.24c0,.08,0,.08-.13.16a.54.54,0,0,1-.36-.08s0,.08-.12.08h-1c0-.08-.08-.08-.08-.16,0,.08-.16,0-.17.16,0-.16-.24-.16-.32-.16s-.2,0-.4,0a1.33,1.33,0,0,1-.41,0c-.08-.08-.24,0-.32,0s-.32,0-.52,0-.13,0-.13-.05c-.48,0-.8-.2-1.25-.21-.2-.16-.64,0-.76-.2a3.2,3.2,0,0,1-.73-.09.08.08,0,0,0-.12,0c-.2-.12-.49,0-.65-.2,0,.08,0,0-.08,0s-.36,0-.53,0c-.36,0-.72-.17-1-.17s-.65,0-.89,0a.82.82,0,0,1-.21,0l-.24-.09a.43.43,0,0,0-.24.08c-.08,0,0,0-.12,0a.76.76,0,0,0-.41,0,4.07,4.07,0,0,1-.81.07l-.2,0c-.12,0-.16.16-.24.2,0,.21,0,.41-.17.53a1.22,1.22,0,0,1-.12.68c0,.37-.09.57-.09.93,0,.08,0,.28-.08.41s0,.28,0,.36,0,0,0,.12c-.16.48-.16,1-.29,1.61,0,0,0,0,0,0a4.52,4.52,0,0,1-.09.89c-.08.49-.05,1.33-.09,1.9-.08.08,0,.24,0,.4s0,.41,0,.61v.93c0,.08,0,.24-.09.24,0,.4-.08.73-.08,1.09a1.85,1.85,0,0,1,0,.44,4.08,4.08,0,0,1,0,1c.16.21-.09.45,0,.69,0,.08-.08.08-.08.16a.3.3,0,0,0,0,.2c-.12.28,0,.73-.09,1a5,5,0,0,1,0,.77s0,0,0,.08a11.81,11.81,0,0,1,0,1.58.51.51,0,0,1,0,.48c0,.48,0,.85,0,1.33-.08.12,0,.41-.08.53s0,.08.08.12c0,.24.08.36,0,.48s0,.21,0,.29a3.35,3.35,0,0,1,0,1s0,0,.08.12a.66.66,0,0,0,0,.48,2.44,2.44,0,0,0,0,.81s0,0,0,.08a12.75,12.75,0,0,1,.07,1.38c.08.32.08.56.16.93A7,7,0,0,1,87.3,63c0,.08,0,.08,0,.12a6.64,6.64,0,0,1,0,.85s0,.08,0,.12,0,.12,0,.16a1.18,1.18,0,0,0,0,.65c-.12.16,0,.28,0,.48,0,0-.08,0-.16,0s0,.28-.13.45-.2,0-.32,0,0-.16,0-.16,0,.16,0,.28a1.4,1.4,0,0,0-.25,0s0,.16-.08.2-.08.17-.08.25-.08-.08-.2-.25c-.08.2-.2.08-.33,0s0,.12-.08.12-.24-.12-.2-.28c-.12,0-.16-.17-.36-.17,0,0,0,.08,0,.12s0-.12-.08-.12,0,.2,0,.29a2.34,2.34,0,0,1-.09.28c-.16,0-.16-.21-.28-.25s0,.29,0,.41-.16-.17-.32-.21l-.16-.28s0,.12-.08.12-.13,0-.17,0c0-.12-.16-.16-.2-.2s0,.08-.12,0,0,0-.08-.09,0,0,0-.12,0,.08-.08.12,0-.12-.12-.16H82.8l-.21-.16a.31.31,0,0,1-.2-.09s0,0-.08-.08-.16-.08-.24-.12L82,65.22s0,0-.12,0,0-.08-.16-.09-.12-.16-.2-.2-.16-.16-.24-.28h-.2s0,.12,0,.2-.08.08-.12.12c-.2,0-.2-.12-.28-.12s-.08-.13,0-.21c-.12,0-.2,0-.2-.16h-.24c0-.08,0-.12-.12-.08,0-.21-.16-.25-.29-.33.13-.12,0-.32,0-.48-.12-.16,0-.61-.12-.89a7.09,7.09,0,0,0-.11-.85c0-.36,0-.81,0-1.25l-.12-.17c-.08-.28,0-.84-.11-1.09,0-.36,0-.76,0-1.05v-.6c0-.45,0-.89,0-1.38v-.08a6,6,0,0,0,0-.85s0-.08,0-.16a3.85,3.85,0,0,1,0-.68.15.15,0,0,1,0-.12,1.2,1.2,0,0,1,0-.37,0,0,0,0,1,0,0,10.55,10.55,0,0,0,.1-1.61,2.87,2.87,0,0,1,.12-.93c.05-.69,0-1.29.06-1.9,0,0,0,0,0,0,0-.28,0-.57,0-.81v-.48a2,2,0,0,1,.05-.37,2.15,2.15,0,0,0,0-.32c0-.44,0-.89,0-1.37,0,0,0,0,0-.08s0-.28,0-.37.09-.4.09-.6a3,3,0,0,0,0-.85c.08,0,.08-.08.12-.16.05-.44,0-1,.1-1.45,0-.12,0-.12,0-.17a.25.25,0,0,0,0-.24,5.94,5.94,0,0,0,.09-1.41s0-.16.08-.16l-.08-.16c.12-.12.08-.41.12-.57a.14.14,0,0,0,0-.08c0-.24,0-.44,0-.52.12-.17,0-.41.12-.61v-.08s0,0,0-.12v-.16s0-.17.17-.12c-.12-.09-.16-.09-.2-.17a.53.53,0,0,0,0-.36s.16,0,.16-.08c-.16-.12-.12-.4-.16-.57-.08,0-.16,0-.24,0a1.57,1.57,0,0,1-.24.08c-.16,0-.37-.08-.53,0-.28,0-.52,0-.69-.05a1.23,1.23,0,0,1-.52,0,1.35,1.35,0,0,1-.81.08,2.94,2.94,0,0,0-.65,0c-.12,0-.2,0-.32,0h-.61s-.2,0-.28,0a1.66,1.66,0,0,1-.45,0h-.64a0,0,0,0,0,0,0c-.29,0-.61,0-.77.15-.2,0-.2-.12-.24,0a1,1,0,0,0-.29-.12s-.12.12-.2.12-.24,0-.4.08a1.11,1.11,0,0,1-.73.28,1.22,1.22,0,0,0-.25,0s-.08,0-.12,0c-.28,0-.48,0-.81,0-.12-.12-.44,0-.6-.13s0,0-.2,0-.53-.08-.69-.16-.12,0-.2,0-.41,0-.53-.16a4.37,4.37,0,0,0-1-.13l-.4-.08a1.35,1.35,0,0,0-.61-.13.62.62,0,0,0-.48-.12c0-.16-.28,0-.45-.21,0,0,0,0-.08,0l-1.09-.49a2,2,0,0,0-.28-.12c0-.16-.28-.16-.44-.29l-.28-.16a3.14,3.14,0,0,1-.69-.33c-.08-.2-.28-.24-.4-.36s-.08,0-.16,0,0-.13,0-.25a.81.81,0,0,1-.36-.24,1,1,0,0,0-.28-.29V34a6.12,6.12,0,0,1,0-1.21s0,0,0,0a.14.14,0,0,1,.08,0c.08,0,.08,0,.08,0a.14.14,0,0,0,.08,0c.08,0,.2-.08.28-.08s.12-.24.21-.4a1.62,1.62,0,0,0,.44,0c.12.17.4.29.53.17s.48,0,.76-.12c0,0,.05-.08.09-.12s-.29-.16-.28-.4c.2,0,.28,0,.44,0a.56.56,0,0,0,.44.2c.08,0,0,0,.08,0,.53,0,1.18,0,1.66.05,0,.12.2.08.24.16a2.17,2.17,0,0,0,.73,0,.4.4,0,0,0,.37,0,11.35,11.35,0,0,1,1.21,0,3.55,3.55,0,0,1,1-.11s0,0,.08,0a5,5,0,0,1,.77,0,.4.4,0,0,1,.28-.16,3.7,3.7,0,0,0,.65,0c.08,0,.12,0,.16,0,.29,0,.57,0,.77-.08.65,0,1.17-.19,1.86-.23a4.79,4.79,0,0,1,1.14-.11,4.68,4.68,0,0,1,.89-.12.06.06,0,0,0,.08,0h0s.08,0,.08,0,0,0,.2,0,.36-.07.57-.07h.12a0,0,0,0,0,0,0c.08,0,.08,0,.08,0v0l.89-.08h0c.28-.12.69,0,.93-.15a8,8,0,0,0,.93-.08c.08-.08.45-.08.61-.11s.36,0,.44-.08c0-.85.06-1.78.14-2.67.08-.08-.08,0,0-.08s.08-.08.08-.16c-.2-.28,0-.69-.07-1-.12.08-.08-.08-.16-.08Zm9.63,17.79s0-.08,0-.08c0-.36.25-.44.25-.68.16-.2.16-.57.45-.69,0-.24.2-.36.28-.52.12,0,.12-.08.16-.08,0-.24.29-.28.33-.56.12,0,.12,0,.2-.12a3.09,3.09,0,0,1,.45-.49s.08-.16.17-.16,0,0,0-.08c.32-.07.4-.36.69-.44,0,0,0,0,0-.08s0,0,.08,0a1.19,1.19,0,0,1,.53-.4c.16-.08.24-.2.44-.32a1.31,1.31,0,0,1,.41-.2.76.76,0,0,1,.32-.12l.2.17a.35.35,0,0,1,.25.08c.08,0,.2,0,.2,0,.32.25,1,0,1.45.09a8.69,8.69,0,0,1,1,0s0,0,0,.16c.09-.12.13-.2.25-.2s.12,0,0,.08a.85.85,0,0,0,.56.16c.12.13.37,0,.57.09s.44,0,.6.16,0-.08.08,0a.4.4,0,0,0,.25.09s.2,0,.2.08c.2.08.44.08.52.16.33,0,.37.17.65.17.12,0,.16.12.28,0,.08.08.24.25.36.21,0,.12.33.08.41.16a.22.22,0,0,1,.24.16c.28,0,.36.21.64.21-.12.08,0,0,0,.12s.12.12.25.12a.75.75,0,0,0,.32.09c.08.16.28.2.48.24,0,0,0,0,.08.16.29,0,.28.13.45.09,0,.12.2.16.32.2a.42.42,0,0,0,.16.25c-.29.32.28.48.4.64s-.08,0-.12.12,0,.13-.09.21c.09,0,.13,0,.08.16s.25.08.33.16c-.17.12-.65-.16-.61.12,0,.08.12.08.16.24a0,0,0,0,0,0,0h-.24l-.37.12c0,.08-.16.12-.28.16s0,.24,0,.28-.25-.08-.33-.08a1.09,1.09,0,0,1-.36,0,1.63,1.63,0,0,0-.49,0,.12.12,0,0,1-.08,0,2.14,2.14,0,0,0-.64-.16c-.2,0-.32-.17-.61-.17-.08,0,0-.08-.08-.08-.4,0-.56-.29-1.09-.21-.16-.16-.48,0-.73,0,0,0,0,0-.08,0a9.15,9.15,0,0,0-1.57,0c-.13.08-.29.15-.41.07,0,.08,0,.16-.08.16a4.77,4.77,0,0,0-.73.16.21.21,0,0,1-.16.08c-.08.08-.25.28-.41.24l-.08.12c-.12,0-.24.12-.32.12s-.17.24-.25.28-.08,0-.16.08-.08,0-.12,0c-.08.24-.17.44-.49.44-.08.08-.12.2-.24.28s-.08,0-.09.08l-.08.08c0,.25-.28.33-.32.49s-.13.12-.17.12c0,.2,0,.56-.08.72s0,.29,0,.33a2.58,2.58,0,0,0,0,.48c0,.12.21.25.16.41s0,.16.08.28a.4.4,0,0,1,.16.28c.08.08.08.21.16.21l.28.52c.16.09.28.25.49.37a1.2,1.2,0,0,0,.52.29l.28.2c.08,0,.12.08.2.12s.08,0,.08,0c.21,0,.37,0,.41.13s.16,0,.24,0,.12,0,.12.12.28,0,.36.12.2.09.41.09.08,0,.12,0c.28,0,.4.12.6.12l.12.17a2.11,2.11,0,0,1,.73.16s.12,0,.16,0,.16.13.33.09a.3.3,0,0,0,.28.12c0,.12.16.16.32.16a0,0,0,0,1,0,0c.24,0,.36.13.52.17a.68.68,0,0,0,.49.28s0,.09.2.09c0,0,0,0,0,.12a.54.54,0,0,1,.28.24c.32,0,.4.29.73.37,0,.16.12.16.16.28s0,0,.08,0,.16,0,.2.13a5.44,5.44,0,0,0,1.08.81c.13.12.29.17.33.33,0,0,.08.08.16.08,0,.16.2.16.28.36,0,0,.08.13.12.17s.2.12.24.24.16.24.24.28a.32.32,0,0,1,.12.25s0,.12.12.12a3.16,3.16,0,0,0,.2.53s0,0,0,.08.12.32.12.48,0,.29,0,.37c0,.28-.24.52-.2.8a.45.45,0,0,0-.17.37.21.21,0,0,1-.16.08c0,.28-.08.44-.29.48,0,.32-.24.36-.24.6s-.25.16-.33.2a.17.17,0,0,1-.16.24c0,.12,0,.12,0,.21-.2.07-.29.32-.37.48-.12,0-.12.12-.2.2a.75.75,0,0,0-.37.36s0,.08,0,.16-.12.12-.2.2-.12,0-.16.08-.21.32-.41.4c0,.08-.08.08,0,.12s-.08.08-.12.12-.09,0-.09.16c-.32.08-.44.28-.73.44,0,.13-.2.12-.24.33a.59.59,0,0,0-.33,0c0,.21-.2.21-.36.37-.08,0-.08-.05-.12-.05a.76.76,0,0,0-.37.28s-.08,0-.12-.12c-.08.12-.32.16-.33.36,0,0-.08,0-.12,0s-.08,0-.12,0l-.56.08a.66.66,0,0,1-.49.12s0,0-.08.12-.37,0-.57,0a0,0,0,0,0,0,0,1.93,1.93,0,0,1-.93-.09,1.88,1.88,0,0,1-.69.12s0,0-.08,0a1.09,1.09,0,0,0-.4,0s0,0-.08,0v-.16c-.08,0,0,0-.2,0s-.33,0-.49-.08a.8.8,0,0,1-.48-.09s0,.08-.08.08-.08-.08-.12-.08-.33,0-.41-.08l-.16-.09c-.08,0-.16,0-.24,0l-.12-.16c-.08.08-.12,0-.16,0a3.89,3.89,0,0,0-.65-.12,1.59,1.59,0,0,0-.73-.25,1.14,1.14,0,0,0-.52-.17c-.16,0-.33.16-.41,0-.08,0,0,.08-.12,0s-.16,0-.16-.16c0,.08-.12,0-.16,0s-.08,0-.12,0c-.24,0-.36-.17-.48-.17s0,0,0-.08c-.25,0-.37,0-.41-.25-.24,0-.36.08-.56.08,0-.12-.21-.12-.29-.24s-.16-.25-.28-.41c-.08.08-.2,0-.32-.08s-.24,0-.24-.16c-.32,0-.48-.25-.81-.25-.08-.08-.2-.08-.32-.17-.28,0-.32-.24-.6-.24,0-.08-.13-.08-.12-.2s.12,0,.12,0c0-.25-.29-.13-.28-.37,0-.08.16-.08.16-.12s-.2-.32,0-.4c-.08,0-.08-.12-.08-.25.2-.08.41-.07.45-.24s-.12-.12-.08-.28c.08,0,.24,0,.32,0s.08-.24.17-.28.24,0,.44,0,.28-.32.57-.31a.17.17,0,0,0,.08-.17,3.59,3.59,0,0,0,.73,0V59.5c.16,0,.4,0,.44.16a1.05,1.05,0,0,0,.37,0c-.08-.2-.24-.24-.36-.36s-.16-.21-.16-.41c.28.12.44.29.68.41,0,.08,0,.12-.08.16.16,0,.24,0,.32,0s.33.13.49.09c0,.16.28.16.36.12a4.17,4.17,0,0,0,.89.21,2,2,0,0,0,.73.08s0,0,.12.09a2,2,0,0,1,.48,0,.74.74,0,0,0,.53.08s.08-.08.16-.12a.24.24,0,0,0,.16,0,2.93,2.93,0,0,1,.65-.07.68.68,0,0,1,.56,0,2.16,2.16,0,0,1,.53,0c.16,0,.4,0,.53,0s.4-.08.48-.16.45,0,.53-.2c.16,0,.24,0,.36,0s.21,0,.21-.12a2.05,2.05,0,0,0,.69-.4c.08,0,.08-.08.12-.08l.28-.12a1.12,1.12,0,0,1,.49-.36c0-.08.08-.08.08-.16.24-.12.29-.36.57-.44a1.25,1.25,0,0,1,.2-.4v0c0-.08-.08-.16-.08-.29l-.12-.16c-.13-.08-.25-.12-.29-.28l-.32-.25s0,0-.12-.08-.28-.2-.36-.32,0,0-.12,0-.08-.09-.2-.13,0-.08,0-.08-.29,0-.32-.16c-.17,0-.29,0-.41,0v0a.94.94,0,0,1-.48-.13c-.12-.08-.25,0-.37-.08-.28,0-.44-.21-.72-.25a.63.63,0,0,0-.37-.12c0-.12-.16-.13-.2-.25-.28,0-.4-.16-.64-.2,0,0-.12,0-.08-.12-.2,0-.28-.17-.57-.17,0-.08-.12-.08-.24-.12s0,0,0,0-.16,0-.2,0a.38.38,0,0,1,0-.13.54.54,0,0,1-.2,0s0,0,0-.08c-.2,0-.24-.16-.49-.16-.12-.17-.32-.21-.4-.37-.08,0-.08,0-.12,0-.16-.2-.44-.21-.6-.45-.12,0-.12,0-.12-.16-.08,0-.08,0-.17,0,0-.12-.16-.21-.32-.29,0-.12-.08-.16-.16-.2a6.41,6.41,0,0,1-.8-.93s0,0-.08-.09c-.12-.4-.52-.56-.64-1-.16-.12-.2-.4-.32-.53s0-.24-.12-.28l-.36-1a.5.5,0,0,0,0-.36h0a.27.27,0,0,0-.12-.28,3.29,3.29,0,0,1-.07-.85c.08,0,0-.12.12-.12.08-.4,0-.85.09-1.29,0,0,0,0,0,0s0-.44.13-.48a.83.83,0,0,0,0-.29C90.86,44.51,90.9,44.51,90.94,44.47Zm24.78,13.89c0,.09.2.13.36,0s.2,0,.24.12,0-.08.08,0,.08,0,.16,0a2.26,2.26,0,0,0,.57.09c.12.12.16.32.48.36,0,.16,0,.2-.16.2a.92.92,0,0,0,0,.33c-.08,0-.08,0-.21.08,0,.24,0,.6-.16.72,0,.16-.12.2,0,.32-.09,0-.09,0-.13,0,0,.25-.16.29-.12.45s0,.08.12.16c-.08.2-.24.28-.29.56a1.72,1.72,0,0,0-.36.57c0,.08.08,0,.08.08a.34.34,0,0,0-.09.24,2,2,0,0,0-.32.6s0,.17-.09.25-.12.12-.12.24-.32.24-.37.48c-.12.08-.16.32-.36.4a.34.34,0,0,1-.13.44c-.12,0-.2.21-.4.2,0,0-.08.13-.16.12s0,.09,0,.17a1.45,1.45,0,0,0-.36.32c-.08.08-.2.12-.25.24a.49.49,0,0,0-.32.4.75.75,0,0,0-.41.44c-.36-.12-.24-.69-.44-.85s-.28.08-.48.12l-.25.2c-.28-.12-.36-.45-.72-.49a.74.74,0,0,0-.08-.28c0-.13-.12-.17-.16-.29-.2,0-.2,0-.28,0s-.09,0,0-.12c-.33-.08-.41-.41-.57-.53s-.12-.2-.12-.32a1,1,0,0,1-.36-.29c0-.24.12-.28.09-.48,0,0,0,0,.08,0,0-.33.32-.61,0-.77,0-.08,0-.12,0-.16a3.76,3.76,0,0,1-.36-.41c.08,0,.08,0,.12-.08,0-.24-.2-.28-.2-.44s0-.29-.11-.33,0-.32.12-.4,0-.28.2-.28a.45.45,0,0,1,0-.37c.12-.08.12-.36.4-.36.12-.12.57,0,.73,0,0-.16.24-.32.33-.44.28,0,.36.16.48.24s.08-.08.12-.08a.51.51,0,0,0,.32.13,1.35,1.35,0,0,1,.33-.45c.12-.24.37-.36.45-.56a.31.31,0,0,1,.12,0c0-.08.08-.12,0-.24s.33-.16.45,0c.16,0,.28-.2.44-.08s0-.08.08-.08h1c.09-.16.45-.2.65-.28s.12.08.33.08Zm20.53-18.08c.2,0,.4.12.44.28,0,0,0-.08.08-.08s0,.09,0,.17.13,0,.13,0a.09.09,0,0,1-.09.08c.08.08.17.08.21.12a1,1,0,0,0,.32-.12c.12,0,.12.08.2.08s-.08,0-.08.16-.12,0-.12-.08-.08,0-.12.08c.12,0,.2.12.28.13s0-.09,0-.09h0s0-.12,0-.16l.53.17a2.67,2.67,0,0,0,.76.21c0,.08.25,0,.24.2.29-.08.33.16.53.2,0,0,0,0,0,0s.12,0,.16,0,.28.08.28.24c.2,0,.41,0,.53.2a1.19,1.19,0,0,1,.32.05,0,0,0,0,0,0,0,.15.15,0,0,0,.12,0,1.74,1.74,0,0,0,.28.16c.12.08.45.09.49.29a4.73,4.73,0,0,1,.76.29.13.13,0,0,1,.12.12s.08,0,.12,0c.21.2.53.24.73.49.28,0,.28.24.56.28.16.33.53.45.6.86H145c.12.16.32.32.32.57.12.08.2.08.32.24a.25.25,0,0,0,.28.28c0,.21,0,.33.08.37a.51.51,0,0,0,.2.44c0,.25.16.45.11.65a.8.8,0,0,1,.12.41.72.72,0,0,1,.12.44.86.86,0,0,0,0,.32s-.12,0-.12.16.08.05.12.09a1.09,1.09,0,0,1,0,.4c0,.08,0,.08,0,.12s0,.16,0,.28,0,.08-.12.12a2.31,2.31,0,0,1,.12.93c0,.08,0,0,0,.08s0,.09,0,.21a.4.4,0,0,0,0,.32.55.55,0,0,0,0,.65c-.08.08-.08,0,0,.12s-.08,0-.08,0,0,.36,0,.48,0,0-.08,0c0,.28-.12.44,0,.65a.55.55,0,0,0-.17.56c-.16.2-.16.49-.37.56.08.17,0,.21,0,.29s-.08.32-.2.36-.08.12-.09.24a2.51,2.51,0,0,1-.48.44v.25c-.21.16-.33.44-.62.6a.49.49,0,0,1-.24.36l-.65.68s0,.08-.08.08-.17.16-.21.24,0,.12-.12,0c0,.08-.08.08-.08.12s0,.08,0,.08c-.16.25-.53.36-.69.65-.12,0-.21.16-.33.16,0,.16-.2.2-.24.32h-.16a2.2,2.2,0,0,1-.45.28.53.53,0,0,1-.37.28.14.14,0,0,0,0,.08c-.28.12-.4.32-.73.4a1.15,1.15,0,0,1-.44.24,1.38,1.38,0,0,1-.69.35.75.75,0,0,1-.37.16c-.12.12-.44.08-.6.12a.11.11,0,0,1,0,.08,1.14,1.14,0,0,0-.64,0,6.23,6.23,0,0,1-.89,0c-.2,0-.49.08-.69.08a.15.15,0,0,1-.12-.08c-.08,0-.16.08-.24.08a1.92,1.92,0,0,1-.65-.09.43.43,0,0,1-.28-.08c-.16,0-.33,0-.37-.08-.4,0-.52-.29-.84-.33,0-.08-.25-.08-.29-.21-.2-.12-.28-.32-.6-.4-.12-.21-.44-.21-.56-.45-.29,0-.36-.21-.53-.37s-.44-.32-.72-.41v-.12c-.16,0-.2-.2-.36-.28a.93.93,0,0,1-.16-.29l-.36-.32a.37.37,0,0,0-.2-.33c0-.08,0-.2-.12-.28a5.87,5.87,0,0,1-.52-1.14c-.2-.08-.12-.32-.24-.36,0-.24-.12-.36-.12-.57a.31.31,0,0,0,0-.12s-.08.08-.08.12a.68.68,0,0,0-.33.32s0,.08-.08,0c0,.08-.08.08-.08.16-.2,0-.24.12-.32.12s0,.08,0,.25a.62.62,0,0,0-.48.48h-.08c-.13,0-.13,0-.13.08s-.08.08-.16.08-.08.28-.32.28c0,.12-.17.12-.17.24-.36.16-.53.44-.89.6-.2.12-.29.24-.57.24-.08,0-.08,0-.08.08s-.28,0-.28,0-.08,0-.08,0c-.13.16-.45,0-.53.27a3.91,3.91,0,0,0-.49.16c-.16,0-.52.12-.68,0,0-.08.12,0,.2-.08a1.91,1.91,0,0,0-.45,0s.08,0,.16,0c-.08.12-.2,0-.2.12,0-.12-.2,0-.32,0s-.08,0-.12,0a1.71,1.71,0,0,1-.61-.08c-.08-.08-.4,0-.52-.12l-.08,0c-.12,0-.21,0-.29,0v-.08c-.16,0-.32,0-.4-.12s0,0,0,0-.16,0-.24,0-.08,0-.08-.09a1.36,1.36,0,0,1-.53-.28h-.2c-.28-.25-.76-.29-1-.58-.4,0-.6-.36-1-.45,0-.08-.25,0-.25-.12-.2,0-.28-.28-.56-.37,0-.12-.32-.12-.36-.28-.2-.08-.24-.25-.48-.29,0-.08-.08-.2-.21-.2-.24-.2-.32-.45-.56-.61.08,0,0-.08,0-.12a.77.77,0,0,1-.36-.49c-.08,0-.08-.12-.12-.16l-.2-.2a.15.15,0,0,0,0-.12.21.21,0,0,0-.08-.17,1.43,1.43,0,0,1-.16-.44s0,0-.12-.08a.81.81,0,0,0,0-.33l0,0a1.63,1.63,0,0,1,0-.44s-.13,0-.12-.08c0-.25,0-.45,0-.69a9,9,0,0,1-.07-1.54,9.24,9.24,0,0,1,0-1.17,0,0,0,0,1,0,0c0-.24,0-.56,0-.72s.13-.45.21-.61a.44.44,0,0,1,.16-.4.52.52,0,0,1,0-.37c0-.08,0-.12,0-.12s.08-.2.12-.4,0-.4.12-.48c0-.37.29-.57.33-.93,0,0,0,0,.09,0,0-.2.2-.16.12-.44a.18.18,0,0,0,.12,0c0-.08.08-.08.08-.16s.08-.12.08-.21.17-.36.29-.56a.13.13,0,0,0,.12-.12s0-.08.08-.08c0-.24.21-.32.33-.56s.12-.24.25-.32c0-.13,0-.17,0-.29.24-.08.28-.28.45-.44s.2-.24.28-.32,0-.08,0-.16l.08-.12c.13-.2.41-.36.49-.65,0,.05,0,0,.08,0s.09,0,0-.09c.12,0,.2-.24.28-.24,0-.16.24-.24.29-.44,0,0,0,0,.12,0,.08-.2.32-.36.41-.56.32-.08.36-.48.69-.6,0-.08.12-.16.12-.24s0,0,.08,0a6.62,6.62,0,0,1,.53-.53c0-.12.24-.2.28-.28s.41-.11.49-.19.36,0,.44.08.17,0,.13-.12c0,.08.24,0,.32-.12a3.78,3.78,0,0,0,.49.08h.12c.08,0,.12.09.32.09,0,.2.4.08.44.24.37,0,.57.29,1,.29a1.13,1.13,0,0,0,.65.37s0,0,0,.08c.12,0,.24,0,.32,0a0,0,0,0,0,0,0c.24,0,.36.21.6.21,0,.12.25.12.29.2s.08,0,.12,0a1.25,1.25,0,0,0,.84.49,1.15,1.15,0,0,0,.33.33s.16.08.2.12-.09.4,0,.53a.12.12,0,0,1,.08,0s0,.2.08.16,0,.12,0,.2-.12.12-.16.32,0,.21.12.25c-.08.2-.16.24-.41.24,0,.08.16.08,0,.16s-.2,0-.32,0h-.2s-.09.13-.17.17-.2,0-.28.11a.9.9,0,0,0-.65.08.31.31,0,0,1-.2.08l-.45.2-.16.12c-.08,0-.12.12-.28.16s-.2,0-.29,0-.08.12-.16.12-.36,0-.4.08a.54.54,0,0,0-.41.15.22.22,0,0,0-.2.12c-.33.12-.45.37-.81.44,0,.08,0,.12,0,.16-.29.08-.37.45-.57.53-.21.36-.53.44-.7.8,0,0,0,0-.08,0s-.12.08-.12.2-.08,0-.08.12l-.33.28c0,.2-.12.08-.08.28,0,0-.16.08-.16.12s0,0,0,0a.31.31,0,0,0-.12,0s0,.21,0,.25a0,0,0,0,0,0,0l-.12.16c-.08.08-.12.08-.12.2s0,0-.08,0-.08.08-.08.16,0,0-.09,0c-.08.28-.24.4-.28.64,0,0,0,.08-.12.08s0,.33-.09.37c0,.36-.2.36-.2.64-.17.12-.17.32-.17.57,0,0,0,0,.08,0a14.36,14.36,0,0,0-.3,2.74,0,0,0,0,0,0,0c0,.08,0,.12,0,.2v0a.88.88,0,0,1,0,.33c0,.08,0,.08,0,.24,0,.32.19.57.52.73,0,.08,0,.08,0,.12a3.61,3.61,0,0,0,.92.49c.12.25.53.25.81.45a1.73,1.73,0,0,0,.2,0v.08c.08,0,.24,0,.36,0a1.78,1.78,0,0,0,.85.29,2.18,2.18,0,0,0,.89.08c.08,0,.12,0,.16,0s0,0,.08-.08a.31.31,0,0,0,.12,0v-.08c.16,0,.2-.16.28-.24a1.06,1.06,0,0,0,.24-.2c.08,0,.13-.08.13-.16.24-.08.32-.32.52-.4,0-.12.09-.12.09-.2s.08-.12.16,0c0-.12.08-.12.08-.2.2,0,.2-.32.41-.36,0-.12.16-.12.2-.24.29-.2.41-.57.69-.73,0-.08,0,0,0-.12.41-.32.58-.76.94-1.08a.12.12,0,0,0,0-.08c.2,0,.21-.2.33-.24.12-.37.44-.49.57-.81,0,0,0,0,.08,0s.16-.08.16-.2a.75.75,0,0,0,.29-.52.43.43,0,0,0,.32-.36,1.34,1.34,0,0,0,.41-.44h0c.08-.08.12-.25.25-.33-.12-.12,0-.24,0-.36s-.16-.08-.12-.24a.25.25,0,0,0,.12-.2,1.45,1.45,0,0,1,.37,0,.53.53,0,0,0,.12-.32c-.12-.17-.2-.37-.28-.49s0-.2,0-.28-.08,0,0-.17.08-.24,0-.44.12-.36.28-.4a1.1,1.1,0,0,1,.21-.77c.24,0,.44-.12.49-.32.16,0,.32-.2.48,0,.24,0,.32,0,.57,0,0,0,0-.08,0-.08s.4-.08.44,0c.16-.2.49,0,.69-.12.16.09.16.13.24.13.08.2.24.24.44.36,0,0,.09-.08.08,0s.09.09.09.13.12.12.32.12c0,0,0,0,0-.16s.08,0,.12,0c0-.53.09-1.17.05-1.78,0-.08-.08-.08-.12-.12s0-.12,0-.16.08,0,.12,0c0-.2-.16-.24-.07-.41H134s0-.16,0-.21-.12-.12,0-.16.08,0,.12,0,0-.16,0-.28c.17,0,.41,0,.45-.16.16,0,.2-.08.32-.24,0,0,0,0,0-.12.2,0,.16.2.32.29,0,.08,0,.12.12.12s0,0,0-.08h.2s.12,0,0,0c.12,0,.16,0,.24,0a.34.34,0,0,0-.08-.24.49.49,0,0,1,.25,0s0,0,0,.12c.16,0,.24-.08.2-.24ZM125.26,58c0-.08,0-.16.12-.08S125.3,58,125.26,58Zm14.56-7.34s0,0,0-.08-.08-.4,0-.6c-.08,0-.12-.09-.12-.13a.64.64,0,0,0-.12-.44c0-.08-.08-.12-.08-.2s-.16-.25-.12-.49c0,0,0,0,0,0,0-.24-.2-.28-.24-.53a.92.92,0,0,1-.16-.44l-.16-.16c-.12-.13-.08-.33-.12-.53a.72.72,0,0,0-.16-.36c0-.13-.24-.13-.28-.25s0,0-.08-.08-.2,0-.36,0c.16.44-.09.68-.21.92-.12,0-.2.12-.36.12a1.13,1.13,0,0,1-1.18.28s-.08,0-.24,0-.08,0-.2,0-.08,0-.08,0c-.13.24-.29.4-.29.64-.12,0-.12.16-.12.24a.14.14,0,0,0-.09,0,1.15,1.15,0,0,0,0,.41c-.16,0-.12.24-.16.36s0,0-.08,0v.08s0,0,0,.08v.08c0,.08,0,0,0,0s0,.16,0,.2-.12,0-.12-.16.08-.16,0-.2-.16.12-.16.28c-.08,0-.12,0-.12,0a2,2,0,0,1-.13.52c-.08,0-.08.16-.12.16s-.08.25-.16.29c.08.2-.09.48,0,.64s-.08.08-.08.24.08,0,0,.13c-.08.24-.08.68-.13.92a1.57,1.57,0,0,0,0,.45.14.14,0,0,0,0,.08,1.34,1.34,0,0,1,0,.4s0,0,0,.12,0,.16,0,.29,0,.36,0,.4c.08.08,0,.12,0,.24a.15.15,0,0,1,0,.12,3.12,3.12,0,0,0,.08.65l.07.32a.3.3,0,0,1,.08.25.28.28,0,0,1,.17,0c0,.16.2.24.36.49a4.92,4.92,0,0,0,1.21.25,6.11,6.11,0,0,0,.89-.16v0c.28-.12.45-.4.69-.52,0,0,0-.12.08-.12a4.82,4.82,0,0,0,1-1.09c0-.08.16-.08.16-.16s.08-.12.08-.16h.08A9.08,9.08,0,0,0,139,53.5v-.2c.08,0,0-.2.16-.24h.24l.13-.44c.08-.12,0-.2.08-.28s.08-.28,0-.33c.12,0,0-.12,0-.24s.09-.2.09-.24-.12,0-.16-.12.16,0,.08,0C139.82,51.13,139.7,50.88,139.82,50.68Zm19.6-16.23c.08.08,0-.08.08-.08.24.24.48.28.52.65.24,0,.28.16.36.24s0,.08.08.12,0,0,0,.13.2.08.2.12,0,.08,0,.08a.08.08,0,0,1,.08.08s0,.08.08.08,0,.2.08.2c0,.17,0,.25.2.33,0,.16,0,.2.08.36s0,.29,0,.41a.6.6,0,0,1,.08.4s.08,0,.08,0c0,.2.24.53.23.85,0,.12-.08.24.08.33v.64c0,.08,0,0,0,.12a1.41,1.41,0,0,0,0,.41,1.78,1.78,0,0,1,.07.68,1.58,1.58,0,0,1,0,.21c0,.08,0,.16,0,.2.12.24,0,.6.2.77a.77.77,0,0,0,0,.68c.16,0,.16-.16.24-.16s0-.08,0-.2c.32-.24.45-.64.69-.92,0-.16.16-.16.16-.29h.08c.17-.37.41-.53.58-.85.24-.16.32-.52.57-.64,0-.24.08-.32.24-.36,0-.08.08-.08.08-.16.21-.25.33-.61.57-.73a.94.94,0,0,1,.25-.4c.08-.12.16-.12.16-.28s.21-.24.37-.36a.46.46,0,0,0,.2-.28s.12,0,.12-.13a.35.35,0,0,0,.29-.2c.12-.12.32-.2.4-.28s.17-.12.21-.2a4.86,4.86,0,0,1,1-.43,2.9,2.9,0,0,0,.73-.32,3.22,3.22,0,0,1,1.42-.11.4.4,0,0,0,.12,0,1.19,1.19,0,0,1,.44.16.67.67,0,0,0,.45-.08.76.76,0,0,0,.48.13,1,1,0,0,0,.4.24c.13.08.17.21.29.29s.2.2.28.24a1.2,1.2,0,0,0,.2.37,1.85,1.85,0,0,1,.28.4,1.05,1.05,0,0,0,.24.37,1.42,1.42,0,0,1,0,.28c.2.08.2.36.32.53s.08.12.08.16.12.28.2.32,0,.12,0,.17.08.2.2.24,0,.12,0,.16.08,0,.08.08.08,0,0,.16c.2.13.15.49.27.57a.29.29,0,0,0,.08.24.86.86,0,0,1,0,.29c0,.12,0,.36,0,.48s0,.08.12.12c0,.33-.08.61.08.85a2.09,2.09,0,0,0,.07.93,2.7,2.7,0,0,0,0,.61c0,.08,0,.08,0,.24a.93.93,0,0,0-.09.24c.08.12.28.41.16.61,0,.6-.13.89-.13,1.37,0,.16.12.16.12.24s-.12.08-.16.16,0,.33.08.41-.05.08-.09.2.08.28.08.4a1.65,1.65,0,0,0-.08.77,2,2,0,0,1,0,.49,6.46,6.46,0,0,1,0,.88,3.69,3.69,0,0,1,0,.69c0,.08,0,.16,0,.24s0,.13,0,.21,0,.32,0,.44,0,.08,0,.12c0,.24-.05.41.12.45,0,.12-.09.32-.09.4s.08.08.08.12a.65.65,0,0,1,0,.28s.08,0,.08.09v.24c0,.08,0,.08,0,.12v.12s.12.16.12.2v.25s0,.12.08.12a.79.79,0,0,0,0,.32.44.44,0,0,1,.2.49.94.94,0,0,1,.2.4.34.34,0,0,1,.12.2c.12.13.16.41.32.49,0,.16-.08.41.16.49,0,.12,0,.16.08.32a.86.86,0,0,0,0,.32.71.71,0,0,1-.37.24.92.92,0,0,1-.12.45c0,.08.16.16.12.32h0c0,.12,0,.24,0,.32s-.08,0-.05.17a.55.55,0,0,0-.56.32.93.93,0,0,1-.45,0c-.2,0-.24.24-.44.24,0,0-.13.08-.17.16a1,1,0,0,0-.52.36c-.21.08-.21-.08-.41-.08,0-.16-.24-.12-.28-.29-.2.08-.28-.08-.36-.16a.43.43,0,0,1-.41-.24.44.44,0,0,1-.2-.05s-.08-.12-.16-.16,0,0,0,0a0,0,0,0,1,0,0c0-.08-.24,0-.28-.08l-.12-.24c-.08-.17-.36-.25-.52-.37a2.57,2.57,0,0,0-.28-1,.57.57,0,0,0-.08-.37L171,56c-.08-.12-.12-.32-.2-.44s0-.08,0-.08c-.08-.21-.07-.49-.15-.73,0,0,.08,0,.08-.08s0-.12-.08-.16.08,0,.08-.09-.08-.32-.12-.48a.31.31,0,0,1-.16-.16v-.57c-.11-.24,0-.65-.15-.81,0-.36-.08-.73-.08-1.09a0,0,0,0,0,0,0c0-.52,0-1.09,0-1.57-.08-.21,0-.37-.07-.49s0-.12,0-.12.12,0,0-.12a9.58,9.58,0,0,1-.07-1.3V45.3s0,0,0-.08a2.74,2.74,0,0,1,.05-.89c-.12-.36,0-1-.24-1.21-.16,0-.08.2-.24.16a.45.45,0,0,1-.25.48s0,.12,0,.2c-.2.16-.37.45-.53.57,0,.36-.28.52-.37.8a1.77,1.77,0,0,1-.28.36.16.16,0,0,1-.08.16c-.09,0-.09.13-.17.12,0,.25-.08.41-.28.45a.43.43,0,0,1-.13.36c0,.24-.12.32-.12.52s-.12.08-.12.12c-.09.29-.29.45-.29.77-.08.08-.08.16-.12.2v.16c-.17.24-.37.4-.37.77-.08,0,0,.16-.09.16s0,0,0,.16-.16.12-.16.32a.58.58,0,0,0-.08.28c-.08,0-.08,0-.13.21l0,.08c0,.08,0,.2,0,.24s-.16.08-.2.24,0,.16-.08.2c.07.36-.25.4-.29.65-.08,0-.08.08-.12.08,0,.64-.45,1-.62,1.49-.16,0-.28.24-.41.28s-.16.2-.28.24,0,.08-.08.12-.12.12-.25.12-.12.16-.24.28-.36.16-.49.36c-.08,0-.08,0-.16,0a3.88,3.88,0,0,1-.57.36c-.08,0-.08.08-.16,0,0,.08-.08.08-.16.12l-.08.16c0,.08-.17.08-.37.12a1.65,1.65,0,0,0-.57.44c-.16,0-.52.07-.68,0s-.33-.08-.33-.16-.12-.08-.2-.12-.16-.09-.2-.09l-.08-.08s-.08,0-.16,0,0-.08-.08-.08-.16,0-.24-.12a1,1,0,0,0-.33,0c-.08,0-.24-.12-.28-.12s-.16-.12-.16-.2-.16-.12-.24,0l-.28-.25c0-.12-.16-.2-.24-.32a3.41,3.41,0,0,0-.36-1.18c0-.08,0-.08,0-.12a1.42,1.42,0,0,0-.08-.4,3.29,3.29,0,0,0-.12-.61,1.14,1.14,0,0,0-.07-.56,0,0,0,0,0,0,0c-.08-.29,0-.61-.12-.81a1.44,1.44,0,0,1,0-.29c0-.08,0-.12,0-.16s0-.12,0-.16v-.73s0,0,0,0c0-.56-.07-1.17-.07-1.78a4.82,4.82,0,0,0,0-.76s0,0,0-.08-.08,0,0-.25h0a0,0,0,0,0,0,0s.08-.08,0-.12,0,0,0-.08a9.88,9.88,0,0,0,0-1.09c-.08-.2.05-.52-.15-.69-.08.08-.09.29-.17.41s0,0,0,.12-.08.28-.12.4l0,0v.16c-.17.16-.17.16-.21.24s0,0,0,.08,0,.17-.08.37c-.08,0,0,.12-.25.12,0,.48-.28.68-.25,1.29-.24.12-.24.48-.32.68s0,.24,0,.29,0,.32-.08.44,0,.12-.08.16c0,.28,0,.53-.09.69s0,0,0,.16,0,.12,0,.24c-.16.24,0,.57-.25.69,0,.16,0,.52.08.64v.12c0,.12-.12.24-.12.33s.12.32.12.4,0,.28,0,.4-.08,0-.08.08.08.33,0,.45a4.28,4.28,0,0,1,0,1c.12.12,0,.28,0,.44v.16c0,.25,0,.57.11.77s-.08.16-.08.24c0,.29,0,.49,0,.73l-.13.69v.4a.15.15,0,0,1,0,.12s0,.16,0,.24,0,.09,0,.13,0,.08-.05.12c0,.24,0,.4,0,.68,0,0-.16.08-.16.2a.38.38,0,0,0-.17.2c0,.09,0,.17-.08.21a.31.31,0,0,1-.16.16s0,.08-.08.08-.16,0-.16.12h-.13l-.28.24h-.08s-.16,0-.16.08a3.74,3.74,0,0,1-.89,0,1,1,0,0,1-.61.28c-.08-.12-.28-.12-.36-.29a1.68,1.68,0,0,1-.45,0,.79.79,0,0,0-.4-.12h-.2s0,0,0,0a1.68,1.68,0,0,0-.45-.05c0-.24-.32-.16-.36-.36-.37.08-.44-.21-.69-.29,0-.16-.16-.16-.16-.32s-.16-.25-.28-.33c-.16-.28.09-.6,0-1,.12-.08.2-.12.2-.28s.08-.08.08-.12,0,0,0-.08,0-.12,0-.16a1.24,1.24,0,0,0,.08-.41l.08,0A2.25,2.25,0,0,1,148,56v0a3.19,3.19,0,0,0,.08-.61.43.43,0,0,0,.08-.24,4.3,4.3,0,0,1,.05-.61,2.26,2.26,0,0,0,0-.28c0-.16,0-.28,0-.44s.09,0,.09-.08.08-.16.08-.2c0-.29-.08-.69,0-1a9.36,9.36,0,0,0,.09-1.17s0,0,0,0V51a4.66,4.66,0,0,1,.08-.77s0,0,0-.08-.08,0,0-.12a12.69,12.69,0,0,0,.09-1.41c0-.08.12,0,.12-.08v-.24l.08-.89,0,0c.05-.24,0-.49.05-.69,0,0,0-.08,0-.08a4.35,4.35,0,0,0,0-.72c.09,0,.05-.13.09-.17,0-.24,0-.44.16-.56,0-.44.17-.73.17-1.25.08-.08,0-.28.09-.45a.24.24,0,0,0,.08-.2c.12-.08,0-.2.12-.28s.08-.16.08-.2,0-.28,0-.44c0,0,0-.08.08-.08,0-.17,0-.33.08-.37s0-.28,0-.48c.25-.16.25-.61.37-.89s.21-.4.21-.68A2.83,2.83,0,0,0,151,39c.08,0,.08,0,.12-.08,0-.48.29-.85.41-1.29l.08-.12a2.3,2.3,0,0,0,.17-.48c.2-.2.2-.57.45-.73,0-.28.2-.36.28-.56a1.69,1.69,0,0,0,.41-.56s0-.09.16-.08.13-.25.17-.41c.12,0,.12,0,.16,0,.08-.16.28-.16.33-.36a2.15,2.15,0,0,0,.81-.48c.08,0,.28,0,.36-.08.25-.08.57,0,.85,0a3.13,3.13,0,0,1,.49-.16h.28c.08,0,0-.16.08,0s.2,0,.24,0,.08.05.12.05a5,5,0,0,1,.77,0c.08,0,.25-.16.37,0a.91.91,0,0,1,.44.17h.16a.31.31,0,0,0,.28.12c0,.24.21.24.16.45A.25.25,0,0,1,159.42,34.45Z" />
</svg>
